<?xml version="1.0" standalone="no"?>
<!DOCTYPE svg PUBLIC "-//W3C//DTD SVG 20010904//EN"
 "http://www.w3.org/TR/2001/REC-SVG-20010904/DTD/svg10.dtd">
<svg version="1.0" xmlns="http://www.w3.org/2000/svg"
 width="162.000000pt" height="162.000000pt" viewBox="0 0 162.000000 162.000000"
 preserveAspectRatio="xMidYMid meet">
<metadata>
Created by potrace 1.11, written by Peter Selinger 2001-2013
</metadata>
<g transform="translate(0.000000,162.000000) scale(0.100000,-0.100000)"
fill="#000000" stroke="none">
<path d="M712 1555 c-92 -26 -183 -100 -224 -184 -19 -38 -23 -62 -23 -145 0
-70 -4 -101 -13 -104 -6 -2 -12 -13 -12 -24 0 -26 66 -165 84 -175 23 -14 45
-68 52 -129 8 -63 17 -75 91 -120 23 -14 48 -22 54 -18 7 4 9 3 5 -4 -9 -14
58 -54 78 -46 14 5 14 9 4 22 -11 13 -10 14 11 7 18 -5 22 -4 16 6 -6 9 -4 11
7 6 9 -3 20 -1 26 5 6 6 12 6 17 -3 6 -8 4 -10 -6 -4 -11 6 -11 5 -3 -4 9 -10
17 -10 34 -1 18 10 20 14 9 21 -8 5 -9 9 -4 9 6 0 15 -4 22 -8 16 -10 -81 -75
-114 -75 -21 0 -22 -1 -7 -12 15 -10 13 -14 -18 -33 -20 -12 -40 -22 -47 -22
-17 0 -14 -6 25 -57 38 -49 38 -56 10 -128 -8 -22 -15 -62 -15 -90 0 -27 3
-44 6 -37 8 21 28 13 69 -30 66 -70 112 -131 117 -158 2 -14 5 21 6 76 1 116
-11 192 -39 247 -25 47 -25 63 1 116 20 41 20 43 2 57 -10 9 -35 23 -55 33
l-37 18 99 68 c55 37 105 74 111 81 6 7 11 54 12 105 2 83 4 93 25 107 12 8
22 22 22 32 0 10 11 42 25 72 24 52 32 98 18 98 -5 0 -8 42 -8 92 0 128 -23
177 -118 258 -39 33 -87 65 -107 71 -61 18 -152 20 -208 4z m83 -265 c3 -5 21
-9 39 -8 18 1 38 -2 44 -6 5 -3 12 -1 14 6 5 13 38 4 38 -10 0 -5 -24 -13 -52
-18 -44 -7 -54 -13 -56 -31 -4 -25 -22 -32 -22 -9 0 8 -9 18 -20 21 -11 3 -20
12 -20 20 0 7 -6 16 -12 18 -8 3 -6 6 5 6 9 1 17 6 17 11 0 13 17 13 25 0z
m-60 -30 c19 -8 19 -9 -2 -9 -12 -1 -25 4 -28 9 -7 12 2 12 30 0z m328 -96 c3
-3 1 -18 -4 -34 -7 -20 -19 -30 -41 -34 -45 -9 -70 -7 -63 4 3 6 19 10 36 10
19 0 29 5 30 15 1 8 3 20 4 25 1 6 3 12 4 15 1 7 26 6 34 -1z m-483 -35 c0
-18 -2 -19 -15 -9 -8 7 -15 16 -15 21 0 5 7 9 15 9 9 0 15 -9 15 -21z m167 -5
c-9 -9 -28 6 -21 18 4 6 10 6 17 -1 6 -6 8 -13 4 -17z m156 -11 c3 -5 1 -17
-4 -28 -4 -11 -8 -15 -8 -8 -1 6 -4 18 -7 27 -6 16 11 23 19 9z m-190 -20 c-7
-2 -19 -2 -25 0 -7 3 -2 5 12 5 14 0 19 -2 13 -5z m12 -23 c-3 -5 -11 -10 -16
-10 -6 0 -7 5 -4 10 3 6 11 10 16 10 6 0 7 -4 4 -10z m285 0 c0 -5 7 -10 15
-10 22 0 18 -17 -5 -23 -11 -3 -20 -1 -20 3 0 5 -7 16 -16 24 -14 15 -14 16 5
16 12 0 21 -4 21 -10z m-190 -10 c0 -5 -2 -10 -4 -10 -3 0 -8 5 -11 10 -3 6
-1 10 4 10 6 0 11 -4 11 -10z m113 -15 c-7 -21 -13 -19 -13 6 0 11 4 18 10 14
5 -3 7 -12 3 -20z m37 -12 c0 -21 -3 -24 -9 -14 -5 8 -7 20 -4 28 8 21 13 15
13 -14z m60 -43 c0 -19 -11 -26 -23 -14 -8 8 3 34 14 34 5 0 9 -9 9 -20z m-50
-30 c0 -5 -4 -10 -10 -10 -5 0 -10 5 -10 10 0 6 5 10 10 10 6 0 10 -4 10 -10z
m-18 -45 c3 -14 1 -25 -3 -25 -5 0 -9 11 -9 25 0 14 2 25 4 25 2 0 6 -11 8
-25z m-120 -95 c16 -15 18 -20 7 -20 -16 0 -39 19 -39 32 0 13 9 9 32 -12z
m-48 -5 c-4 -8 -8 -15 -10 -15 -2 0 -4 7 -4 15 0 8 4 15 10 15 5 0 7 -7 4 -15z
m166 -135 c0 -5 -5 -10 -11 -10 -5 0 -7 5 -4 10 3 6 8 10 11 10 2 0 4 -4 4
-10z m-165 -60 c3 -6 -1 -7 -9 -4 -18 7 -21 14 -7 14 6 0 13 -4 16 -10z"/>
<path d="M1082 698 c8 -23 8 -60 0 -137 -7 -58 -14 -135 -18 -171 -3 -36 -16
-137 -30 -224 -13 -88 -24 -161 -24 -163 0 -2 137 -3 305 -3 l305 0 0 240 0
240 -47 23 c-86 43 -227 95 -293 107 -74 14 -110 33 -159 84 -43 44 -53 45
-39 4z"/>
<path d="M539 670 c-37 -49 -88 -77 -166 -90 -54 -9 -109 -30 -222 -85 l-151
-74 0 -211 0 -210 325 0 c364 0 335 -7 315 75 -10 41 -50 305 -50 329 0 7 10
18 23 25 19 9 19 10 2 6 -18 -4 -24 5 -44 65 -14 39 -24 76 -24 83 0 26 13 99
18 108 14 22 -6 6 -26 -21z"/>
<path d="M767 110 c-4 -14 -7 -44 -7 -67 l0 -43 52 0 c49 0 51 1 35 18 -9 9
-28 29 -41 43 -13 15 -26 37 -28 50 l-3 24 -8 -25z"/>
</g>
</svg>
